<svg width="36" height="36" viewBox="0 0 36 36" xmlns="http://www.w3.org/2000/svg">
    <g transform="translate(.788)" fill-rule="nonzero" fill="none">
        <ellipse fill="#FFD93B" cx="17.598" cy="18" rx="17.598" ry="18"/>
        <path d="M35.197 18c0 9.945-7.88 18-17.598 18-5.533 0-10.472-2.61-13.7-6.7a17.266 17.266 0 0 0 11.049 3.989c9.717 0 17.598-8.055 17.598-18 0-4.28-1.457-8.213-3.899-11.3C32.64 7.29 35.197 12.34 35.197 18z" fill="#F4C534"/>
        <path d="M26.242 26.305c-2.08 2.52-5.178 4.53-8.642 4.53-3.465 0-6.559-2.01-8.649-4.519-.726-.877.011-2.216 1.133-2.014 4.95.89 9.954.9 15.036-.01 1.11-.192 1.859 1.135 1.122 2.013z" fill="#3E4347"/>
        <path d="M17.6 30.833c1.767 0 3.438-.527 4.928-1.374-.624-2.37-2.801-3.046-4.306-2.228-2.038 1.113-4.318-.327-5.198 2.412 1.4.734 2.944 1.19 4.576 1.19z" fill="#E24B4B"/>
        <path d="M23.875 18.688c1.526 0 2.762-1.265 2.762-2.825 0-1.56-1.236-2.825-2.762-2.825-1.525 0-2.761 1.265-2.761 2.825 0 1.56 1.236 2.825 2.761 2.825z" fill="#3E4347"/>
        <path d="M24.877 14.105c-.422-.191-.862-.12-.983.16-.122.279.122.66.544.852.422.191.863.12.984-.16.121-.279-.123-.66-.545-.852z" fill="#5A5F63"/>
        <g>
            <path d="M10.927 18.688c1.526 0 2.762-1.265 2.762-2.825 0-1.56-1.236-2.825-2.762-2.825-1.525 0-2.761 1.265-2.761 2.825 0 1.56 1.236 2.825 2.761 2.825z" fill="#3E4347"/>
            <path d="M11.93 14.104c-.423-.191-.863-.12-.984.16-.122.28.122.66.544.852.422.192.863.12.984-.159.12-.28-.123-.661-.545-.853z" fill="#5A5F63"/>
        </g>
    </g>
</svg>
